<?xml version="1.0" encoding="UTF-8" standalone="no"?>
<!DOCTYPE svg PUBLIC "-//W3C//DTD SVG 1.1//EN" "http://www.w3.org/Graphics/SVG/1.1/DTD/svg11.dtd">
<svg width="100%" height="100%" viewBox="0 0 912 217" version="1.1" xmlns="http://www.w3.org/2000/svg" xmlns:xlink="http://www.w3.org/1999/xlink" xml:space="preserve" xmlns:serif="http://www.serif.com/" style="fill-rule:evenodd;clip-rule:evenodd;stroke-linejoin:round;stroke-miterlimit:2;">
    <g transform="matrix(1,0,0,1,-67.780488,-273.828352)">
        <g transform="matrix(0.502317,0,0,0.470499,-67.40113,216.694134)">
            <path d="M616.425,122.484C613.699,126.658 601.091,156.184 600.04,158.302C598.617,161.36 598.439,161.236 593.009,174.285C591.82,176.241 586.7,188.532 581.422,203.476C581.058,204.419 579.531,208.371 577.409,215.462C571.446,231.616 565.12,259.561 564.241,263.443C542.82,369.7 549.221,413.899 549.221,413.899C549.221,413.899 611.163,252.822 753.495,197.141C757.001,195.77 753.366,200.983 751.021,205.227C724.301,253.587 682.992,336.409 673.681,387.945C662.321,450.815 663.727,503.007 663.727,503.007L591.249,502.969C591.249,502.969 592.797,437.86 630.379,351.662C659.547,284.762 736.762,215.258 737.235,215.048C737.765,214.814 671.647,284.478 646.598,331.094C603.457,411.38 599.48,503.007 599.48,503.007L483.415,503.007C483.415,503.007 481.486,473.203 493.954,392.58C517.378,241.111 583.075,153.524 608.432,130.441C608.696,130.2 599.122,133.431 574.099,169.18C525.437,238.696 506.429,314.023 504.367,320.459C497.817,345.139 497.805,345.124 497.236,347.413C493.864,360.819 494.633,360.903 491.167,374.425C488.117,391.462 487.077,394.931 484.152,413.445C479.265,450.846 479.364,450.81 478.04,464.469C475.296,493.537 475.615,503.007 475.615,503.007L418.778,503.007C418.778,503.007 406.782,448.806 391.767,393.431C379.223,357.473 357.497,280.211 289.167,213.527C288.346,212.726 273.949,201.353 273.949,201.353C273.949,201.353 283.228,209.193 307.601,236.418C354.538,288.845 378.327,365.412 382.018,377.641C401.689,442.821 411.435,503.007 411.435,503.007L351.175,503.007C351.175,503.007 352.31,450.928 339.871,390.393C336.791,375.402 335.668,362.423 325.7,327.431C319.778,308.882 320.005,308.868 313.684,290.436C305.571,269.079 301.399,261.152 299.766,257.343C298.129,253.963 284.764,226.374 278.548,215.469C268.813,198.388 268.273,197.615 269.711,196.802C270.659,196.266 291.253,206.069 292.416,206.684C305.988,213.18 305.468,213.988 318.297,221.85C321.451,223.598 321.342,223.659 324.187,225.855C328.998,229.979 329.116,229.676 333.321,232.783C340.928,238.296 340.158,239.156 343.904,242.007C354.636,250.174 369.641,267.951 375.072,273.782C377.085,276.837 377.153,276.698 379.195,279.742C387.579,290.167 394.153,298.042 405.119,317.7C406.839,320.956 406.812,320.944 406.976,321.216C417.715,338.977 428.12,363.72 430.422,370.528C432.185,375.692 432.24,375.574 434.346,380.553C439.242,396.091 439.399,395.976 439.822,397.322C441.895,403.916 441.726,395.608 444.956,381.602C447.984,368.475 456.983,338.427 457.987,335.716C462.601,319.157 472.278,294.933 472.802,293.643C473.711,291.268 474.809,288.397 485.771,264.627C492.474,250.971 492.911,251.264 499.727,237.627C525.17,193.478 537.057,182.114 553.024,165.056C553.969,163.994 554.914,162.933 555.859,161.871C559.024,159.324 558.917,159.248 566.872,151.879C571.236,148.225 571.522,148.697 575.679,144.707C581.728,140.47 582.896,139.093 591.677,133.727C603.101,125.662 615.401,121.375 615.523,121.434C615.938,121.635 616.009,122.283 616.425,122.484Z" style="fill:rgb(16,185,130);"/>
        </g>
        <g transform="matrix(0.94012,0,0,1,12.167665,-3)">
            <path d="M270,459.397L270,487.527C270,490.263 267.711,492.484 264.89,492.484L108.11,492.484C105.289,492.484 103,490.263 103,487.527L103,459.397L270,459.397Z" style="fill:rgb(16,185,130);"/>
        </g>
        <g transform="matrix(1.231648,0,0,1.110188,-126.381729,-15.677253)">
            <path d="M385.433,453.683C380.15,452.218 375.891,449.177 372.655,444.562C369.419,439.947 366.811,434.415 364.83,427.968C364.698,426.064 364.665,423.426 364.731,420.056C364.797,416.686 364.962,413.536 365.226,410.606C365.49,407.675 366.58,401.338 366.91,399.946C367.24,398.554 371.536,378.7 380.381,356.979C381.149,355.094 381.669,353.828 382.065,353.242L382.065,352.803C382.594,351.338 384.707,346.246 385.235,344.561C385.763,342.876 386.358,341.228 387.018,339.616C388.471,336.099 390.287,332.107 392.466,327.638C394.645,323.169 396.989,318.7 399.499,314.231C402.008,309.762 404.418,305.733 406.73,302.143C409.041,298.553 411.055,295.879 412.772,294.121C415.017,291.337 417.296,289.322 419.607,288.077C421.918,286.831 424.064,287.308 426.045,289.505C426.97,290.531 427.762,292.033 428.423,294.011C429.083,295.989 429.38,297.821 429.314,299.506C429.248,301.191 428.687,302.106 427.63,302.253C426.706,302.839 425.463,304.487 423.903,307.198C422.343,309.909 420.588,313.095 418.638,316.758C416.688,320.422 414.793,324.194 412.955,328.077C411.116,331.96 409.404,335.44 407.819,338.517C406.102,342.766 404.518,346.466 403.065,349.616C401.612,352.766 400.886,354.341 400.886,354.341C400.753,354.781 400.621,355.147 400.489,355.44C400.357,355.733 400.225,356.026 400.093,356.319C398.112,360.861 395.616,367.641 394.328,371.391C390.572,382.333 386.82,394.049 386.82,395.221C385.895,397.858 385.037,401.045 384.244,404.781C383.452,408.518 382.891,412.107 382.56,415.551C382.23,418.994 382.131,421.668 382.263,423.573C382.527,426.064 383.155,428.152 384.145,429.837C385.136,431.522 386.556,432.877 388.405,433.903C389.857,434.635 391.178,435.258 392.367,435.771C393.556,436.284 394.612,436.54 395.537,436.54C396.593,436.686 397.947,436.65 399.598,436.43C401.249,436.21 403.527,435.807 406.433,435.221L406.234,435.221C407.951,434.928 409.767,434.525 411.682,434.012C413.598,433.5 415.414,433.023 417.13,432.584C418.715,432.291 420.234,431.961 421.687,431.595C423.14,431.229 424.262,430.899 425.055,430.606C427.96,429.727 430.305,428.994 432.088,428.408C433.871,427.822 435.092,427.822 435.753,428.408C436.413,428.994 437.139,430.093 437.932,431.705C438.724,433.316 438.922,434.782 438.526,436.1C438.262,436.833 436.941,438.335 434.564,440.606C432.187,442.877 429.479,445.148 426.442,447.419C423.404,449.69 420.63,451.265 418.121,452.144C415.48,453.463 411.947,454.379 407.522,454.892C403.098,455.405 398.838,455.514 394.744,455.221C390.65,454.928 387.546,454.416 385.433,453.683Z" style="fill:rgb(16,185,130);fill-rule:nonzero;"/>
        </g>
        <g transform="matrix(1.231648,0,0,1.110188,-125.381729,-3.677253)">
            <path d="M472.65,435.771C448.897,439.822 446.781,422.773 447.837,417.529C448.552,413.979 450.479,409.873 452.592,404.891C454.705,399.91 457.016,394.855 459.526,389.726C460.582,388.554 468.639,375.44 468.639,375.44C468.903,374.854 469.715,373.682 471.076,371.924C472.437,370.166 474.121,368.224 476.128,366.1C478.135,363.975 480.154,361.954 482.184,360.035C484.215,358.116 485.907,356.731 487.261,355.88C490.034,353.828 492.907,352.876 495.879,353.023C498.85,353.169 501.393,354.195 503.506,356.1C503.902,356.539 518.661,369.773 521.297,374.781C522.181,376.462 519.469,385.77 519.469,385.77C517.808,391.631 517.39,396.759 518.215,401.155C519.041,405.551 520.279,409.36 521.93,412.584C522.59,414.195 523.482,415.441 524.604,416.32C525.727,417.199 527.213,417.785 529.062,418.078C530.118,418.225 531.109,418.664 532.033,419.397C532.958,420.13 533.42,421.302 533.42,422.913C533.42,426.43 532.859,428.957 531.736,430.496C530.614,432.034 529.392,432.95 528.071,433.243C523.713,433.829 519.553,433.316 515.59,431.705C511.628,430.093 508.062,425.917 504.893,419.177C504.364,418.298 503.671,416.65 502.812,414.232C501.954,411.814 501.459,410.239 501.327,409.507C500.798,410.239 500.105,411.155 499.246,412.254C498.388,413.353 497.563,414.342 496.77,415.221C487.393,425.771 479.845,434.544 472.65,435.771ZM466.856,417.419C467.78,417.565 469.233,417.016 471.214,415.77C473.195,414.525 475.837,412.437 479.138,409.507C483.629,405.258 487.327,401.741 490.233,398.957C493.138,396.173 495.978,392.583 498.751,388.188L503.11,380.276C501.789,376.906 500.6,374.708 499.544,373.682C498.487,372.656 497.43,372.144 496.374,372.144C494.657,372.144 492.61,373.352 490.233,375.77C487.855,378.188 485.181,381.704 482.209,386.32C479.237,390.935 475.903,396.686 472.205,403.573C470.488,406.796 469.167,409.91 468.242,412.913C467.318,415.917 466.856,417.419 466.856,417.419Z" style="fill:rgb(16,185,130);fill-rule:nonzero;"/>
        </g>
        <g transform="matrix(1.231648,0,0,1.110188,-120.381729,1.322747)">
            <path d="M551.448,433.683C549.467,433.683 547.486,432.034 545.505,428.738C543.524,425.441 541.972,421.375 540.849,416.54C539.727,411.705 539.297,406.943 539.562,402.254C539.562,397.565 539.793,393.792 540.255,390.935C540.717,388.078 541.212,385.257 541.741,382.473C542.137,381.594 542.632,378.737 542.83,377.418C543.028,376.1 543.458,373.902 544.118,370.825C544.646,368.334 545.208,366.283 545.802,364.671C546.396,363.059 546.892,361.96 547.288,361.374C548.873,359.03 550.656,357.601 552.637,357.089C554.618,356.576 556.434,356.832 558.085,357.858C559.736,358.883 560.693,360.422 560.957,362.473C561.75,363.206 562.179,364.854 562.245,367.418C562.311,369.982 562.146,372.62 561.75,375.331C561.354,378.041 559.405,383.792 559.075,386.869C558.745,389.946 558.415,393.17 558.085,396.54C557.755,399.91 557.391,402.62 556.995,404.671C556.599,407.309 556.764,408.957 557.49,409.617C558.217,410.276 559.538,409.617 561.453,407.639C563.368,405.66 565.91,402.107 569.08,396.979C571.721,392.583 573.669,389.14 574.924,386.649C576.179,384.158 577.169,381.887 577.896,379.836C578.622,377.785 579.447,375.367 580.372,372.583C581.032,370.239 581.66,368.334 582.254,366.869C582.848,365.404 583.41,364.378 583.938,363.792C585.391,361.448 587.339,360.459 589.782,360.825C592.225,361.191 594.24,361.96 595.824,363.133C597.409,364.891 598.367,367.272 598.697,370.276C599.027,373.279 598.4,376.539 596.815,380.056C595.758,382.4 594.735,385.168 593.744,388.359C592.754,391.551 591.961,394.774 591.367,398.03C590.773,401.285 590.475,404.085 590.475,406.43C590.475,409.36 590.839,411.082 591.565,411.595C592.291,412.107 593.183,412.364 594.24,412.364C595.824,412.364 597.343,411.741 598.796,410.496C600.249,409.25 602.362,406.992 605.136,403.72C606.324,402.381 607.777,400.41 609.494,397.807C611.211,395.204 612.895,392.442 614.546,389.522C616.197,386.602 617.583,384.018 618.706,381.771C619.829,379.524 620.39,378.101 620.39,377.501C620.39,376.603 620.984,375.331 622.173,373.682C622.965,372.51 623.593,371.594 624.055,370.935C624.517,370.276 625.409,369.58 626.729,368.847C627.786,368.261 628.975,368.151 630.295,368.517C631.616,368.884 632.739,369.653 633.663,370.825C634.324,371.411 634.819,372.84 635.149,375.111C635.479,377.382 635.644,379.396 635.644,381.155C635.248,382.766 634.667,385.01 633.9,387.886C633.133,390.761 632.308,393.472 631.424,396.018C630.539,398.563 629.767,400.276 629.107,401.155C628.578,401.741 627.654,402.803 626.333,404.342C625.012,405.88 623.824,407.529 622.767,409.287C619.465,413.683 617.088,416.54 615.635,417.858C614.182,419.177 612.928,420.423 611.871,421.595C609.098,424.672 605.928,427.126 602.362,428.957C598.796,430.789 595.428,431.815 592.258,432.034C589.089,432.254 586.579,431.631 584.73,430.166C580.636,427.822 578.589,423.866 578.589,418.298C578.589,417.126 578.424,416.064 578.094,415.111C577.764,414.159 577.598,413.683 577.598,413.683C577.07,413.683 576.377,413.829 575.518,414.122C574.66,414.415 573.768,415.441 572.844,417.199C571.655,419.69 569.643,422.217 566.806,424.782C563.97,427.346 561.097,429.47 558.188,431.155C555.28,432.84 553.033,433.683 551.448,433.683Z" style="fill:rgb(16,185,130);fill-rule:nonzero;"/>
        </g>
        <g transform="matrix(1.231648,0,0,1.110188,-127.381729,-0.896611)">
            <path d="M703.199,439.397C701.218,439.397 699.303,438.701 697.454,437.309C695.605,435.917 694.086,433.939 692.898,431.375C691.709,428.811 691.115,425.771 691.115,422.254C691.115,420.056 691.478,416.943 692.204,412.913C692.931,408.884 694.02,403.792 695.473,397.638C695.737,395.587 695.968,394.268 696.166,393.682C696.365,393.096 696.464,392.51 696.464,391.924C696.464,391.631 696.431,391.375 696.365,391.155C696.298,390.935 696.133,390.825 695.869,390.825C694.813,390.825 693.393,391.594 691.61,393.133C689.827,394.671 687.813,396.466 685.568,398.518C685.171,398.811 684.742,399.177 684.28,399.616C683.818,400.056 683.355,400.496 682.893,400.935C682.431,401.375 681.936,401.814 681.407,402.254C680.087,403.133 678.073,404.818 675.365,407.309C672.658,409.8 669.884,412.437 667.044,415.221C664.205,418.005 661.729,420.349 659.615,422.254C658.559,423.133 657.667,423.866 656.941,424.452C656.215,425.038 655.719,425.331 655.455,425.331C655.191,425.331 654.167,424.928 652.384,424.122C650.601,423.316 648.885,422.144 647.234,420.606C645.583,419.067 644.757,417.272 644.757,415.221C644.757,413.902 645.253,411.265 646.243,407.309C647.234,403.353 648.653,398.664 650.502,393.243C652.351,387.821 654.465,382.327 656.842,376.759C657.37,375.44 657.766,373.682 658.031,371.484C658.295,369.286 658.592,367.125 658.922,365.001C659.252,362.876 659.88,361.301 660.804,360.275C661.2,359.543 661.696,358.993 662.29,358.627C662.884,358.261 663.512,358.078 664.172,358.078C665.493,358.078 666.747,358.407 667.936,359.067C669.125,359.726 670.247,360.788 671.304,362.253C673.285,364.598 674.374,367.345 674.573,370.495C674.771,373.646 674.54,376.686 673.879,379.616C673.219,382.547 672.492,384.928 671.7,386.759C670.908,388.591 670.511,389.36 670.511,389.067C671.04,388.774 671.799,388.041 672.79,386.869C673.78,385.697 675.53,384.305 678.039,382.693C681.473,379.763 684.115,377.675 685.964,376.429C687.813,375.184 689.233,374.268 690.223,373.682C691.214,373.096 692.105,372.437 692.898,371.704C693.558,371.118 694.053,370.752 694.383,370.605C694.714,370.459 694.879,370.385 694.879,370.385C695.275,370.385 695.968,370.092 696.959,369.506C697.949,368.92 698.907,368.627 699.831,368.627C701.152,368.627 702.539,368.957 703.992,369.616C705.445,370.276 706.699,371.155 707.756,372.254C708.812,373.352 714.095,378.271 714.095,388.847C714.095,391.191 713.633,394.635 712.708,399.177C711.784,403.719 710.793,408.188 709.737,412.584C708.68,417.126 708.185,420.752 708.251,423.463C708.317,426.174 708.548,428.225 708.944,429.617C709.341,431.009 709.539,432.144 709.539,433.023C709.539,434.196 709.01,435.551 707.954,437.089C706.897,438.628 705.312,439.397 703.199,439.397Z" style="fill:rgb(16,185,130);fill-rule:nonzero;"/>
        </g>
        <g transform="matrix(1.231648,0,0,1.110188,-136.381729,-6.677253)">
            <path d="M745,440.056C741.83,440.056 739.09,438.188 736.779,434.452C734.467,430.716 733.048,426.21 732.519,420.935C732.651,419.763 732.817,418.078 733.015,415.88C733.213,413.683 733.444,411.411 733.708,409.067C734.236,406.283 734.979,402.695 735.935,398.303C736.892,393.911 737.882,389.478 738.907,385.006C739.931,380.534 740.84,376.649 741.632,373.352C742.425,370.056 742.887,368.114 743.019,367.528C743.812,365.477 745.595,364.964 748.368,365.99C751.142,367.015 753.519,369.213 755.5,372.583C756.292,373.755 756.788,375.147 756.986,376.759C757.184,378.371 756.986,380.715 756.391,383.792C755.797,386.869 754.708,391.411 753.123,397.419C751.67,403.28 750.58,408.005 749.854,411.595C749.127,415.184 748.83,418.957 748.962,422.913C748.434,429.653 747.906,434.232 747.377,436.65C746.849,439.067 746.057,440.203 745,440.056ZM763.226,348.847C762.698,349.286 762.203,349.469 761.74,349.396C761.278,349.323 760.519,348.926 759.462,348.205C758.538,348.06 757.382,347.38 755.995,346.165C754.608,344.949 753.42,343.662 752.429,342.303C751.439,340.944 750.943,340.122 750.943,339.836C750.811,338.37 750.91,336.026 751.241,332.803C751.571,329.579 752.297,326.539 753.42,323.682C754.542,320.824 756.094,319.323 758.075,319.176C758.604,319.176 759.759,319.469 761.542,320.055C763.325,320.641 765.207,321.374 767.188,322.253C768.245,324.451 769.235,327.308 770.16,330.825C771.084,334.341 771.184,337.748 770.457,341.044C769.731,344.341 767.32,346.942 763.226,348.847Z" style="fill:rgb(16,185,130);fill-rule:nonzero;"/>
        </g>
        <g transform="matrix(1.231648,0,0,1.110188,-130.381729,-7.677253)">
            <path d="M783.037,438.298C777.886,435.954 774.32,432.144 772.339,426.869C770.358,421.595 769.83,414.562 770.754,405.77C771.018,401.228 770.886,398.188 770.358,396.649C769.83,395.111 768.839,393.609 767.386,392.144C766.99,391.558 766.066,390.569 764.613,389.177C763.16,387.785 762.5,386.723 762.632,385.99C762.5,384.964 762.698,383.682 763.226,382.144C763.754,380.605 764.217,379.763 764.613,379.616C765.537,379.177 766.495,378.664 767.486,378.078C768.476,377.492 769.235,377.345 769.764,377.638C770.292,377.638 771.118,378.005 772.24,378.737C773.363,379.47 773.924,380.129 773.924,380.715C774.452,381.741 775.278,381.301 776.4,379.396C777.523,377.492 778.745,375.074 780.065,372.144C781.386,369.799 783.037,367.601 785.018,365.55C786.999,363.499 789.013,361.631 791.06,359.946C793.108,358.261 794.858,356.979 796.31,356.1C796.971,355.806 798.258,355.367 800.173,354.781C802.088,354.195 804.103,353.719 806.216,353.352C808.329,352.986 809.914,352.876 810.97,353.023C813.348,353.169 815.857,354.268 818.498,356.319C821.14,358.371 823.187,360.275 824.64,362.034C826.357,363.352 827.512,365.367 828.107,368.078C828.701,370.788 828.932,373.609 828.8,376.539C828.668,379.47 828.14,381.961 827.215,384.012C826.819,385.477 825.432,387.528 823.055,390.166C820.678,392.803 818.069,395.331 815.23,397.748C812.39,400.166 809.98,401.814 807.999,402.693C806.282,403.133 804.235,403.463 801.857,403.682C799.48,403.902 797.268,403.902 795.221,403.682C793.174,403.463 791.754,403.133 790.961,402.693C790.037,402.107 789.277,402.29 788.683,403.243C788.089,404.195 787.594,406.723 787.197,410.825C787.065,412.437 787.098,413.829 787.296,415.001C787.494,416.173 787.726,417.053 787.99,417.639C788.914,419.397 789.839,420.679 790.763,421.485C791.688,422.291 793.405,422.547 795.914,422.254C798.423,421.961 800.966,420.239 803.541,417.089C806.117,413.939 808.461,411.411 810.574,409.507C811.102,408.481 812.258,407.785 814.041,407.419C815.824,407.052 817.97,407.236 820.48,407.968C821.932,408.994 822.626,410.606 822.56,412.803C822.494,415.001 821.404,418.225 819.291,422.474C818.895,423.5 817.805,425.001 816.022,426.979C814.239,428.957 812.324,430.935 810.277,432.914C808.23,434.892 806.546,436.32 805.225,437.199C801.263,439.544 797.367,440.643 793.537,440.496C789.707,440.349 786.207,439.617 783.037,438.298ZM797.697,388.847C799.678,388.261 801.362,387.675 802.749,387.089C804.136,386.503 805.489,385.55 806.81,384.232C808.131,382.913 809.65,380.935 811.367,378.298C811.895,376.686 812.192,375.294 812.258,374.122C812.324,372.95 812.225,372.217 811.961,371.924C810.904,370.752 809.749,370.349 808.494,370.715C807.239,371.081 805.886,371.851 804.433,373.023C803.508,373.462 802.221,374.378 800.57,375.77C798.919,377.162 797.334,378.701 795.815,380.386C794.296,382.07 793.108,383.609 792.249,385.001C791.391,386.393 791.226,387.235 791.754,387.528C791.49,388.115 792.249,388.481 794.032,388.627C795.815,388.774 797.037,388.847 797.697,388.847Z" style="fill:rgb(16,185,130);fill-rule:nonzero;"/>
        </g>
        <g transform="matrix(1.231648,0,0,1.110188,-132.381729,-9.677253)">
            <path d="M855.545,441.815C848.489,441.815 843.338,439.324 840.092,434.342C839.168,432.025 838.739,429.651 838.805,427.22C838.871,424.788 839.366,423.023 840.29,421.924C841.215,420.825 842.338,421.082 843.658,422.694C845.367,423.866 847.809,424.452 850.985,424.452C852.572,424.452 853.993,424.415 855.248,424.342C856.502,424.269 857.988,424.159 859.705,424.012C862.743,423.719 864.691,422.694 865.549,420.935C866.408,419.177 866.177,417.712 864.856,416.54L865.054,416.54C861.488,415.514 857.988,414.049 854.554,412.144C851.12,410.239 848.215,408.078 845.837,405.66C843.46,403.243 842.073,400.935 841.677,398.737C840.621,393.863 840.885,388.872 842.47,383.763C844.055,378.654 846.366,374.195 849.403,370.385C850.068,369.894 853.817,365.402 858.266,362.01C861.779,359.331 866.033,355.875 867.431,355.067C870.601,353.236 874.303,353.336 878.538,351.766L881.615,351.295C883.253,350.982 889.998,349.435 896.652,355.77C898.496,357.525 899.888,359.709 901.011,362.092C902.133,364.475 902.563,366.727 902.298,368.847C901.902,372.217 900.78,375.55 898.931,378.847C897.082,382.144 895.1,384.012 892.987,384.451C893.251,384.305 892.987,384.012 892.195,383.572C891.402,383.133 888.893,381.081 888.629,380.495C888.101,379.47 887.737,378.371 887.539,377.199C887.341,376.026 887.308,374.708 887.44,373.243C887.704,371.631 887.77,370.678 887.638,370.385C887.506,370.092 886.709,369.873 885.246,369.726C883.539,369.286 881.365,369.47 878.724,370.276C876.082,371.081 873.661,372.437 871.462,374.341C868.775,376.246 866.804,377.785 865.549,378.957C864.295,380.129 863.337,381.265 862.677,382.364C862.016,383.462 860.319,386.328 859.923,387.134C859.526,387.94 858.516,391.384 858.516,392.061C858.516,393.554 859.639,395.081 861.884,396.641C864.13,398.201 867.497,399.999 871.988,402.034C875.554,403.646 877.898,405.844 879.021,408.628C880.143,411.411 881.167,414.049 882.091,416.54C882.355,417.126 882.653,418.188 882.983,419.727C883.313,421.265 884.37,427.633 882.983,430.053C881.596,432.473 879.45,434.672 876.544,436.65C873.639,438.628 870.337,440.056 866.639,440.936L866.837,440.936C864.839,441.27 862.88,441.5 860.96,441.626C859.04,441.752 857.235,441.815 855.545,441.815Z" style="fill:rgb(16,185,130);fill-rule:nonzero;"/>
        </g>
    </g>
</svg>
